<svg version="1.0" xmlns="http://www.w3.org/2000/svg" width="432" height="216"><path d="M.1 214.55c.15-1.3 5.5-5.45 47.25-36.75l47.05-35.3H432V216H-.05l.15-1.45z" fill="#009639"/><path d="M48.15 37.85C10.25 9.5.55 2 .55 1.15L.5 0H432v73.5H95.75l-47.6-35.65z"/><path d="M95 143.2c0-.85 5.25-5 23-18.25 12.6-9.45 22.95-17.3 22.95-17.45 0-.15-10.1-7.8-22.45-17C97.85 75.1 96.05 73.65 96 72.25c0-1.1.15-1.3.6-.85.45.45 38.45.6 168 .6H432v72l-168.5.1-168.5.15v-1.05z" fill="#fff"/><path d="M0 108C0 1.9 0 0 .95 0 1.5 0 2 .2 2.1.4c.1.2 32.05 24.3 71 53.5 39 29.2 70.9 53.3 70.9 53.6 0 .3-31.9 24.4-70.85 53.55-39 29.2-71.25 53.5-71.75 54-.45.55-.95.95-1.1.95-.15 0-.3-48.6-.3-108z" fill="#ed2e38" stroke="red" stroke-width=".5"/></svg>